<svg xmlns="http://www.w3.org/2000/svg" xmlns:xlink="http://www.w3.org/1999/xlink" version="1.1" x="0px" y="0px" viewBox="0 0 100 125" enable-background="new 0 0 100 100" xml:space="preserve"><g><g><path d="M69.525,22.183l0.015-0.007l-0.002-0.004l2.017-0.992c3.575-1.542,7.764-0.038,9.481,3.502    c1.707,3.518,0.32,7.705-3.061,9.577l2.596,5.35l-2.082,1.01L69.525,22.183z"/><path d="M74.186,36.13c-3.601,1.654-7.878,0.148-9.615-3.433c-1.725-3.553-0.293-7.807,3.181-9.636H67.75l0.013-0.007    c0.021-0.012,0.04-0.024,0.062-0.035L74.186,36.13z"/></g></g><path d="M59.925,55.005l-6.379-6.507l8.008-11.722c1.396-2.123,1.698-6.186-0.379-8.674c-1.694-2.029-11.165-9.118-23.426-3.466  c-8.602,3.965-13.252,11.765-13.252,19.909V75.35c0,1.635,0.568,3,1.704,4.107c1.136,1.098,2.485,1.648,4.049,1.648  c1.635,0,3.019-0.551,4.154-1.648c1.136-1.107,1.706-2.473,1.706-4.107V49.196c0,0-0.239-7.263,8.776-10.03  c2.973-0.912,5.922,0.072,6.491,0.363l-5.646,8.263c-0.677,1.444-0.349,3.159,0.815,4.253l2.948,2.96H39.078v26.247h37.317V55.005  H59.925z M72.708,77.564H42.765V58.691h10.404l3.259,3.272c0.712,0.668,1.618,1.001,2.523,1.001c0.983,0,1.963-0.391,2.689-1.164  c0.813-0.867,1.112-2.02,0.938-3.109h10.129V77.564z"/><circle cx="81.407" cy="78.619" r="2.547"/><circle cx="84.859" cy="72.867" r="2.547"/><circle cx="92.169" cy="72.867" r="2.547"/><circle cx="81.062" cy="67.129" r="2.548"/><circle cx="88.712" cy="78.619" r="2.546"/><circle cx="96.354" cy="78.619" r="2.547"/><path d="M19.829,57.199h-7.698V19.181c0-1.035-0.838-1.875-1.875-1.875c-1.036,0-1.875,0.839-1.875,1.875v38.019h-7.69l-0.008,12.5  c0,0,0.025,4.051,2.611,7.084c2.937,3.443,6.968,4.322,6.968,4.322s4.019-0.879,6.954-4.322c2.588-3.033,2.623-7.076,2.623-7.076  L19.829,57.199z"/><rect x="52.469" y="64.58" width="10.37" height="3.457"/><text x="0" y="115" fill="#000000" font-size="5px" font-weight="bold" font-family="'Helvetica Neue', Helvetica, Arial-Unicode, Arial, Sans-serif">Created by Luis Prado</text><text x="0" y="120" fill="#000000" font-size="5px" font-weight="bold" font-family="'Helvetica Neue', Helvetica, Arial-Unicode, Arial, Sans-serif">from the Noun Project</text></svg>